{"title":"Supernatural S05D2 (retail)(ENG+NL SUBS) RHoek","uid":6052621,"size":4689312486,"categoryP":"video","categoryS":"tv_shows","magnet":"?xt=urn:btih:f03cfb4a2d5e47cdd416d6f90ab6885cef48f187&amp;dn=Supernatural+S05D2+%28retail%29%28ENG%2BNL+SUBS%29+RHoek&amp;tr=udp%3A%2F%2Ftracker.openbittorrent.com%3A80&amp;tr=udp%3A%2F%2Fopen.demonii.com%3A1337&amp;tr=udp%3A%2F%2Ftracker.coppersurfer.tk%3A6969&amp;tr=udp%3A%2F%2Fexodus.desync.com%3A6969","seeders":0,"leechers":1,"uploader":"RHoek-2lions","files":-1,"time":1292790505,"description":"Dit is de laatste up van mij voor Supernatural. Zoals ik al eerder vermeld heb, stop ik ermee omdat ik toe ben aan wat anders. Wel wil ik  vermelden dat ik voor mijn series ik een vervanger heb gevonden. Het is Hornigold. Gebruik dan ook de tag 'Hornigold' als je zoekt naar de series Ghost Whisperer, Fringe, Lost Girl en Supernatural. Hij zal jullie dezelfde kwaliteit -zo niet beter- geven die jullie gewend zijn. Rest mij nog jullie het beste te wensen en veel plezier. Het ga jullie goed!\n\nFOR ENGLISH, PLEASE SCROLL DOWN!\n\n~~~~~~~~~~~~~~~~~~~~~~~~~~~~~~~~~~~~~~~~~~~~~~~~~~~~~~~~~\nVERHAALLIJN:\nÃ‚Â¯Ã‚Â¯Ã‚Â¯Ã‚Â¯Ã‚Â¯Ã‚Â¯Ã‚Â¯Ã‚Â¯Ã‚Â¯Ã‚Â¯Ã‚Â¯Ã‚Â¯\nDean keert terug onder de levenden, maar voor hoe lang? Naar de hel en weer terug. Vier maanden na zijn afdaling naar de onderwereld klimt Dean Winchester weer uit zijn graf. Hij - en de gehele mensheid - zullen al snel voor nog ergere verschrikkingen komen te staan. Een koele engel waarschuwt hem dat Lucifer spoedig vrij zal zijn en de Apocalyps zal ontketenen. Met Sam aan zijn zijde gaat Dean de strijd aan met de duivelse wezens die nu de Prins der Duisternis dienen. Hij reist af naar de tijd voordat hij was geboren om zijn ouders te ontmoeten, en komt eindelijk achter de verbazingwekkende relatie tussen zijn lieve moeder en de demon met de gele ogen.\n\n~~~~~~~~~~~~~~~~~~~~~~~~~~~~~~~~~~~~~~~~~~~~~~~~~~~~~~~~~\n- Titel: Supernatural S05D2 (retail)(ENG+NL SUBS) RHoek\n- Bron: Retail\n- Formaat: DVD5 \n- Audio: 2.0\n- Taal: Engels\n- Ondertitelingen: Nederlands - Engels\n- Menu: Ja\n- Extra's: Nee\n- Cover: Nee\n- Label: Nee\n- Genre : Drama | Fantasy | Horror | Mystery | Thriller \n\nIMDb: http://www.imdb.com/title/tt0460681/\nOfficiÃƒÂ«le website: http://supernatural.warnerbros.com/\n\n~~~~~~~~~~~~~~~~~~~~~~~~~~~~~~~~~~~~~~~~~~~~~~~~~~~~~~~~~\nSTORY LINE:\nÃ‚Â¯Ã‚Â¯Ã‚Â¯Ã‚Â¯Ã‚Â¯Ã‚Â¯Ã‚Â¯Ã‚Â¯Ã‚Â¯Ã‚Â¯Ã‚Â¯\nThis season focuses on Sam and Dean continuing to hunt demons, the introduction of a mysterious angel, Castiel (Misha Collins), as well as Sam Winchester's new powers, and Dean's return from Hell and his memory of his time spent there. This season also touches on the brothers' continuing hunt for Lilith, who is trying to release Lucifer on the world.\n\n~~~~~~~~~~~~~~~~~~~~~~~~~~~~~~~~~~~~~~~~~~~~~~~~~~~~~~~~~\n- Title: Supernatural S05D2 (retail)(ENG+NL SUBS) RHoek\n- Source: Retail\n- Format: DVD5 \n- Audio: 2.0\n- Language: Engels\n- Subtitles: Dutch - English\n- Menu: Yes\n- Extras: No\n- Cover: No\n- Label: No\n- Genre : Drama | Fantasy | Horror | Mystery | Thriller \n\nIMDb: http://www.imdb.com/title/tt0460681/\nOfficial website: http://supernatural.warnerbros.com/\n\n~~~~~~~~~~~~~~~~~~~~~~~~~~~~~~~~~~~~~~~~~~~~~~~~~~~~~~~~~\nVIDEO AND AUDIO INFORMATION\nÃ‚Â¯Ã‚Â¯Ã‚Â¯Ã‚Â¯Ã‚Â¯Ã‚Â¯Ã‚Â¯Ã‚Â¯Ã‚Â¯Ã‚Â¯Ã‚Â¯Ã‚Â¯Ã‚Â¯Ã‚Â¯Ã‚Â¯Ã‚Â¯Ã‚Â¯Ã‚Â¯Ã‚Â¯Ã‚Â¯Ã‚Â¯Ã‚Â¯Ã‚Â¯Ã‚Â¯Ã‚Â¯Ã‚Â¯Ã‚Â¯Ã‚Â¯Ã‚Â¯Ã‚Â¯\nVideo\nID                               : 224 (0xE0)\nFormat                           : MPEG Video\nFormat version                   : Version 2\nFormat profile                   : Main@Main\nFormat settings, BVOP            : Yes\nFormat settings, Matrix          : Default\nDuration                         : 36mn 35s\nBit rate mode                    : Variable\nBit rate                         : 3 450 Kbps\nWidth                            : 720 pixels\nHeight                           : 576 pixels\nDisplay aspect ratio             : 16:9\nFrame rate                       : 25.000 fps\nStandard                         : PAL\nColor space                      : YUV\nChroma subsampling               : 4:2:0\nBit depth                        : 8 bits\nBits/(Pixel*Frame)               : 0.333\nStream size                      : 903 MiB (88%)\nWriting library                  : TMPGEnc 2.524.63.181\n\nAudio\nID                               : 128 (0x80)\nFormat                           : AC-3\nFormat/Info                      : Audio Coding 3\nMode extension                   : CM (complete main)\nDuration                         : 36mn 35s\nBit rate mode                    : Constant\nBit rate                         : 384 Kbps\nChannel(s)                       : 6 channels\nChannel positions                : Front: L C R, Side: L R, LFE\nSampling rate                    : 48.0 KHz\nBit depth                        : 16 bits\nVideo delay                      : -229ms\nStream size                      : 101 MiB (10%)\n\n*********************************\nBrought to you by Ren HÃƒÂ¶ek\n*********************************","torrent":{"xt":"urn:btih:f03cfb4a2d5e47cdd416d6f90ab6885cef48f187","amp;dn":"Supernatural+S05D2+%28retail%29%28ENG%2BNL+SUBS%29+RHoek","amp;tr":["udp%3A%2F%2Ftracker.openbittorrent.com%3A80","udp%3A%2F%2Fopen.demonii.com%3A1337","udp%3A%2F%2Ftracker.coppersurfer.tk%3A6969","udp%3A%2F%2Fexodus.desync.com%3A6969"],"infoHash":"f03cfb4a2d5e47cdd416d6f90ab6885cef48f187","infoHashBuffer":{"type":"Buffer","data":[240,60,251,74,45,94,71,205,212,22,214,249,10,182,136,92,239,72,241,135]},"announce":[],"urlList":[]}}